<?xml version="1.0" encoding="UTF-8"?>
<svg width="12px" height="12px" viewBox="0 0 12 12" version="1.1" xmlns="http://www.w3.org/2000/svg" xmlns:xlink="http://www.w3.org/1999/xlink">
    <title>moon</title>
    <g id="亮色系图探索" stroke="none" stroke-width="1" fill="none" fill-rule="evenodd">
        <g id="1关-带图标" transform="translate(-5.000000, -5.000000)">
            <g id="moon" transform="translate(5.000000, 5.000000)">
                <polygon id="Clip-2" points="0 0 12 0 12 12 0 12"></polygon>
                <path d="M7.53608203,1.55372695 C7.573875,1.8077543 7.59348047,2.06773477 7.59348047,2.33228555 C7.59349219,5.23455117 5.24569922,7.58234414 2.34344531,7.5823207 C2.07949219,7.5823207 1.82009766,7.56280898 1.56662109,7.52518008 C1.54729687,7.5223207 1.52825391,7.52093789 1.50959766,7.52093789 C1.2481875,7.52092617 1.06017187,7.79210977 1.16742187,8.0439457 C1.96721484,9.92193398 3.82967578,11.2385707 5.99973047,11.2385707 C8.89178906,11.2385707 11.2497305,8.8806293 11.2497305,5.9885707 C11.2497305,3.81789492 9.93233203,1.95498867 8.05346484,1.15558242 C8.00423438,1.13464102 7.95426563,1.12499648 7.90573828,1.12499648 C7.68895313,1.12499648 7.50091406,1.31734805 7.53608203,1.55372695 Z M8.86725,2.52045352 C9.20083594,2.79660586 9.49252734,3.11846133 9.73426172,3.4770668 C10.2350391,4.2199418 10.4997305,5.08840664 10.4997305,5.9885707 C10.4997305,6.5941957 10.3805859,7.18216055 10.1456484,7.7361293 C9.91844531,8.2718168 9.59319141,8.75349258 9.17892187,9.16776211 C8.76464062,9.58204336 8.28296484,9.90729727 7.74728906,10.1345004 C7.19330859,10.3694379 6.60534375,10.4885707 5.99973047,10.4885707 C5.09982422,10.4885707 4.23157031,10.2240316 3.48883594,9.72353555 C3.13028906,9.48193008 2.80846875,9.19036758 2.53231641,8.85696914 C2.39389453,8.68984805 2.26807031,8.51355117 2.15566406,8.32940273 C2.21827734,8.33134805 2.28087891,8.3323207 2.34343359,8.3323207 C3.15372656,8.3323207 3.93989062,8.1737543 4.68005859,7.8610043 C5.39485547,7.55897695 6.03649219,7.12663711 6.58713281,6.57598477 C7.13778516,6.02534414 7.570125,5.38370742 7.87216406,4.66891055 C8.18490234,3.92873086 8.34348047,3.14257852 8.34348047,2.33227383 C8.34348047,2.26973086 8.34250781,2.20711758 8.34055078,2.14451602 C8.52440625,2.25673477 8.70038672,2.38230117 8.86725,2.52045352 Z" id="Fill-1" fill-opacity="0.45" fill="#000000"></path>
            </g>
        </g>
    </g>
</svg>