<?xml version="1.0" encoding="UTF-8"?>
<svg width="12px" height="12px" viewBox="0 0 12 12" version="1.1" xmlns="http://www.w3.org/2000/svg" xmlns:xlink="http://www.w3.org/1999/xlink">
    <title>sun</title>
    <g id="亮色系图探索" stroke="none" stroke-width="1" fill="none" fill-rule="evenodd">
        <g id="开-文字" transform="translate(-37.000000, -5.000000)">
            <g id="sun" transform="translate(37.000000, 5.000000)">
                <rect id="矩形" fill="#D8D8D8" opacity="0" x="0" y="0" width="12" height="12"></rect>
                <path d="M6.28125,9.375 C6.3330267,9.375 6.375,9.4169733 6.375,9.46875 L6.375,11.15625 C6.375,11.2080267 6.3330267,11.25 6.28125,11.25 L5.71875,11.25 C5.6669733,11.25 5.625,11.2080267 5.625,11.15625 L5.625,9.46875 C5.625,9.4169733 5.6669733,9.375 5.71875,9.375 L6.28125,9.375 Z M8.71794169,8.1876116 L9.91118438,9.3808543 C9.94779604,9.41746595 9.94779604,9.47682517 9.91118438,9.51343682 L9.51343682,9.91118438 C9.47682517,9.94779604 9.41746595,9.94779604 9.3808543,9.91118438 L8.1876116,8.71794169 C8.15099995,8.68133004 8.15099995,8.62197082 8.1876116,8.58535917 L8.58535917,8.1876116 C8.62197082,8.15099995 8.68133004,8.15099995 8.71794169,8.1876116 Z M3.41464083,8.1876116 L3.8123884,8.58535917 C3.84900005,8.62197082 3.84900005,8.68133004 3.8123884,8.71794169 L2.6191457,9.91118438 C2.58253405,9.94779604 2.52317483,9.94779604 2.48656318,9.91118438 L2.08881562,9.51343682 C2.05220396,9.47682517 2.05220396,9.41746595 2.08881562,9.3808543 L3.28205831,8.1876116 C3.31866996,8.15099995 3.37802918,8.15099995 3.41464083,8.1876116 Z M6,3.375 C7.44974747,3.375 8.625,4.55025253 8.625,6 C8.625,7.43524999 7.47313499,8.6014675 6.04340917,8.62464832 L6,8.625 C4.55025253,8.625 3.375,7.44974747 3.375,6 C3.375,4.56475001 4.52686501,3.3985325 5.95659083,3.37535168 L6,3.375 Z M6,4.125 C4.96446609,4.125 4.125,4.96446609 4.125,6 C4.125,7.03553391 4.96446609,7.875 6,7.875 C7.03553391,7.875 7.875,7.03553391 7.875,6 C7.875,4.96446609 7.03553391,4.125 6,4.125 Z M2.53125,5.625 C2.5830267,5.625 2.625,5.6669733 2.625,5.71875 L2.625,6.28125 C2.625,6.3330267 2.5830267,6.375 2.53125,6.375 L0.84375,6.375 C0.791973305,6.375 0.75,6.3330267 0.75,6.28125 L0.75,5.71875 C0.75,5.6669733 0.791973305,5.625 0.84375,5.625 L2.53125,5.625 Z M11.15625,5.625 C11.2080267,5.625 11.25,5.6669733 11.25,5.71875 L11.25,6.28125 C11.25,6.3330267 11.2080267,6.375 11.15625,6.375 L9.46875,6.375 C9.4169733,6.375 9.375,6.3330267 9.375,6.28125 L9.375,5.71875 C9.375,5.6669733 9.4169733,5.625 9.46875,5.625 L11.15625,5.625 Z M2.6191457,2.08881562 L3.8123884,3.28205831 C3.84900005,3.31866996 3.84900005,3.37802918 3.8123884,3.41464083 L3.41464083,3.8123884 C3.37802918,3.84900005 3.31866996,3.84900005 3.28205831,3.8123884 L2.08881562,2.6191457 C2.05220396,2.58253405 2.05220396,2.52317483 2.08881562,2.48656318 L2.48656318,2.08881562 C2.52317483,2.05220396 2.58253405,2.05220396 2.6191457,2.08881562 Z M9.51343682,2.08881562 L9.91118438,2.48656318 C9.94779604,2.52317483 9.94779604,2.58253405 9.91118438,2.6191457 L8.71794169,3.8123884 C8.68133004,3.84900005 8.62197082,3.84900005 8.58535917,3.8123884 L8.1876116,3.41464083 C8.15099995,3.37802918 8.15099995,3.31866996 8.1876116,3.28205831 L9.3808543,2.08881562 C9.41746595,2.05220396 9.47682517,2.05220396 9.51343682,2.08881562 Z M6.28125,0.75 C6.3330267,0.75 6.375,0.791973305 6.375,0.84375 L6.375,2.53125 C6.375,2.5830267 6.3330267,2.625 6.28125,2.625 L5.71875,2.625 C5.6669733,2.625 5.625,2.5830267 5.625,2.53125 L5.625,0.84375 C5.625,0.791973305 5.6669733,0.75 5.71875,0.75 L6.28125,0.75 Z" id="形状" fill="#1890FF" fill-rule="nonzero"></path>
            </g>
        </g>
    </g>
</svg>