<?xml version="1.0" encoding="UTF-8"?>
<svg width="101px" height="26px" viewBox="0 0 101 26" version="1.1" xmlns="http://www.w3.org/2000/svg" xmlns:xlink="http://www.w3.org/1999/xlink">
  <title>GeaFlow标志设计-03</title>
  <g id="设计稿" stroke="none" stroke-width="1" fill="none" fill-rule="evenodd">
    <g id="GeaFlow标志设计-03" fill-rule="nonzero">
      <g id="编组-13" transform="translate(30.840000, 7.140000)" fill="#000000">
        <path d="M0.00993472648,7.38 C0.00993472648,5.08666667 0.519934726,3.45666667 1.53993473,2.49 C2.78608739,1.42170199 4.40247498,0.886498096 6.03993473,1 C6.64190691,1.00078344 7.24318574,1.0408687 7.83993473,1.12 C8.33431544,1.17958214 8.82059925,1.29360731 9.28993473,1.46 L9.28993473,3.24 C8.28665047,2.88061627 7.22525094,2.71106363 6.15993473,2.74 C5.38992226,2.71035399 4.62254809,2.84677606 3.90993473,3.14 C3.3154588,3.43388678 2.84937566,3.93554879 2.59993473,4.55 C2.25705666,5.44214236 2.1005075,6.39505034 2.13993473,7.35 C2.08995527,8.34053709 2.2291014,9.33152909 2.54993473,10.27 C2.77241271,10.8752156 3.22541075,11.3677611 3.80993473,11.64 C4.52559666,11.9208622 5.29172882,12.0502534 6.05993473,12.02 C6.65174156,12.0318736 7.24278355,11.9714262 7.81993473,11.84 L7.81993473,8.43 L5.54993473,8.43 L5.54993473,6.75 L9.76993473,6.75 L9.76993473,13.19 C9.19953388,13.3571976 8.6181068,13.4841759 8.02993473,13.57 C7.34129467,13.6716408 6.646033,13.7217799 5.94993473,13.72 C4.84224418,13.759485 3.73769089,13.5793579 2.69993473,13.19 C1.81236078,12.8239993 1.09731165,12.1339769 0.699934726,11.26 C0.182886088,10.0344774 -0.0528933863,8.708645 0.00993472648,7.38 Z" id="路径"></path>
        <path d="M19.8899347,9.05 L13.5499347,9.46 C13.5095247,10.1912496 13.7572266,10.9092261 14.2399347,11.46 C14.8674597,11.9401619 15.6533692,12.1652178 16.4399347,12.09 C17.0046625,12.0884392 17.5676948,12.0281144 18.1199347,11.91 C18.6032535,11.8129608 19.0732498,11.6585335 19.5199347,11.45 L19.5199347,13.09 C19.0747836,13.2957829 18.6038502,13.4404267 18.1199347,13.52 C17.4594066,13.6341485 16.7902527,13.6910266 16.1199347,13.69 C15.2428509,13.7398333 14.3655236,13.5964568 13.5499347,13.27 C12.8730061,12.9534296 12.3332161,12.4029858 12.0299347,11.72 C11.6385857,10.770266 11.4610533,9.74604063 11.5099347,8.72 C11.4610533,7.69395937 11.6385857,6.66973402 12.0299347,5.72 C12.3354679,5.05048878 12.8764356,4.51663905 13.5499347,4.22 C14.3354154,3.89609925 15.1807309,3.74271538 16.0299347,3.77 C17.1794478,3.63059582 18.3267094,4.04643171 19.1199347,4.89 C19.7256918,5.76879446 20.0212671,6.8244205 19.9599347,7.89 C19.9635371,8.27782228 19.9401473,8.66542517 19.8899347,9.05 Z M18.1599347,7.73 C18.1953633,7.1001849 18.0533096,6.47306957 17.7499347,5.92 C17.3285508,5.43206112 16.6884836,5.19109463 16.0499347,5.28 C15.315743,5.18425254 14.5782867,5.43130043 14.0499347,5.95 C13.6626728,6.58576503 13.4875723,7.32819149 13.5499347,8.07 L18.1599347,7.73 Z" id="形状"></path>
        <path d="M29.8499347,6.79 L29.8499347,13.55 L28.1699347,13.55 L27.9399347,12.21 C27.6511942,12.7080987 27.2041447,13.0953069 26.6699347,13.31 C26.0412621,13.5912471 25.3585593,13.7312012 24.6699347,13.72 C22.4699347,13.72 21.3699347,12.76 21.3699347,10.84 C21.2899279,9.94168342 21.6654131,9.06304804 22.3699347,8.5 C23.231345,7.96549934 24.2383371,7.7137513 25.2499347,7.78 L27.9899347,7.78 L27.9899347,7.18 C28.0387736,6.67384269 27.8675598,6.17112974 27.5199347,5.8 C26.9920643,5.45140094 26.3585508,5.29921614 25.7299347,5.37 C25.0312597,5.36899648 24.3343094,5.43936166 23.6499347,5.58 L23.6499347,3.93 C24.3914548,3.81985965 25.1402883,3.76637154 25.8899347,3.77 C26.9841938,3.66290343 28.0820518,3.93472035 28.9999347,4.54 C29.6049393,5.12550844 29.916685,5.95071752 29.8499347,6.79 Z M27.9399347,10.61 L27.9399347,9.21 L25.4199347,9.21 C24.846642,9.16282847 24.2715956,9.27714492 23.7599347,9.54 C23.3928584,9.84492987 23.2078674,10.3168458 23.2699347,10.79 C23.2367311,11.1875241 23.3878746,11.5782855 23.6799347,11.85 C24.05835,12.1076305 24.5136951,12.227644 24.9699347,12.19 C25.6146074,12.2125707 26.2544971,12.0715198 26.8299347,11.78 C27.3228277,11.5283881 27.7145949,11.1154443 27.9399347,10.61 Z" id="形状"></path>
        <polygon id="路径" points="39.5499347 3 34.4499347 3 34.4499347 6.59 39.1999347 6.59 39.1999347 8.3 34.4499347 8.3 34.4499347 13.55 32.4499347 13.55 32.4499347 1.21 39.5499347 1.21"></polygon>
        <path d="M41.3799347,11.45 L41.3799347,0 L43.2899347,0 L43.2899347,11 C43.2546414,11.3126356 43.3212834,11.6283083 43.4799347,11.9 C43.6589868,12.0781722 43.9087122,12.1663106 44.1599347,12.14 C44.3765842,12.1424189 44.5923548,12.1120761 44.7999347,12.05 L44.7999347,13.58 C44.4713166,13.6501567 44.135938,13.6836946 43.7999347,13.68 C43.1464182,13.7410949 42.4936754,13.5556161 41.9699347,13.16 C41.5394291,12.6996051 41.3249265,12.0779113 41.3799347,11.45 L41.3799347,11.45 Z" id="路径"></path>
        <path d="M45.5999347,8.74 C45.5510533,7.71395937 45.7285857,6.68973402 46.1199347,5.74 C46.4222419,5.05974042 46.9578097,4.50998538 47.6299347,4.19 C48.4216015,3.86329624 49.2740357,3.70985809 50.1299347,3.74 C50.9922862,3.71037887 51.8511327,3.86374431 52.6499347,4.19 C53.3248055,4.50283595 53.8593878,5.05523767 54.1499347,5.74 C54.5372524,6.69089424 54.7146295,7.71422359 54.6699347,8.74 C54.7139995,9.76573591 54.5366456,10.7889319 54.1499347,11.74 C53.8593878,12.4247623 53.3248055,12.9771641 52.6499347,13.29 C51.8511327,13.6162557 50.9922862,13.7696211 50.1299347,13.74 C49.2740357,13.7701419 48.4216015,13.6167038 47.6299347,13.29 C46.9578097,12.9700146 46.4222419,12.4202596 46.1199347,11.74 C45.7285857,10.790266 45.5510533,9.76604063 45.5999347,8.74 L45.5999347,8.74 Z M52.6699347,8.74 C52.6925815,8.03864002 52.6117122,7.33777257 52.4299347,6.66 C52.3112581,6.22174148 52.0330537,5.84366884 51.6499347,5.6 C51.1811178,5.35899576 50.656127,5.24847136 50.1299347,5.28 C49.600618,5.2495944 49.0726979,5.36000908 48.5999347,5.6 C48.214066,5.84071285 47.9349712,6.21999551 47.8199347,6.66 C47.6337253,7.33741987 47.5428509,8.03748919 47.5499347,8.74 C47.5265529,9.44139016 47.6074347,10.1423654 47.7899347,10.82 C47.9087851,11.2584013 48.1916283,11.6343322 48.5799347,11.87 C49.5517385,12.2971326 50.6581309,12.2971326 51.6299347,11.87 C52.0128196,11.6328438 52.288832,11.2564632 52.3999347,10.82 C52.5938872,10.1441616 52.6849088,9.44295865 52.6699347,8.74 Z" id="形状"></path>
        <polygon id="路径" points="58.1299347 13.55 55.5499347 3.94 57.5499347 3.94 59.3799347 11.59 59.4899347 11.59 61.5499347 3.94 63.7599347 3.94 65.9399347 11.59 66.0499347 11.59 67.8999347 3.94 69.8399347 3.94 67.1699347 13.55 64.8199347 13.55 62.7399347 6.15 62.6299347 6.15 60.5499347 13.55"></polygon>
      </g>
      <path d="M22.84,25.98 L12.59,25.98 C5.636735,25.98 0,20.343265 0,13.39 C0,6.436735 5.636735,0.8 12.59,0.8 L21.7,0.8 L21.7,3.07 L12.59,3.07 C6.89042138,3.07 2.27,7.69042138 2.27,13.39 C2.27,19.0895786 6.89042138,23.71 12.59,23.71 L20.59,23.71 L20.59,12.14 L15,12.14 L15,9.87 L22.84,9.87 L22.84,25.98 Z" id="路径" fill="#0438FF"></path>
      <path d="M18.21,21.4 L12.74,21.4 C8.321722,21.4 4.74,17.818278 4.74,13.4 C4.74,8.981722 8.321722,5.4 12.74,5.4 L22.82,5.4 L22.82,7.68 L12.74,7.68 C10.6375793,7.59211258 8.65613489,8.6636621 7.57873097,10.4711736 C6.50132706,12.2786852 6.50132706,14.5313148 7.57873097,16.3388264 C8.65613489,18.1463379 10.6375793,19.2178874 12.74,19.13 L15.94,19.13 L15.94,16.81 L11.86,16.81 L11.86,14.54 L18.21,14.54 L18.21,21.4 Z" id="路径" fill="#0438FF"></path>
      <circle id="椭圆形" fill="#22D291" cx="20.84" cy="1.98" r="1.98"></circle>
      <circle id="椭圆形" fill="#22D291" cx="13.84" cy="11.11" r="1.98"></circle>
    </g>
  </g>
</svg>
