<?xml version="1.0" encoding="UTF-8"?>
<svg width="80px" height="26px" viewBox="-25 0 80 26" version="1.1"
     xmlns="http://www.w3.org/2000/svg" xmlns:xlink="http://www.w3.org/1999/xlink">
  <title>GeaFlow标志设计-03</title>
  <g id="设计稿" stroke="none" stroke-width="1" fill="none" fill-rule="evenodd">
    <g id="GeaFlow标志设计-03" fill-rule="nonzero">
      <path d="M22.84,25.98 L12.59,25.98 C5.636735,25.98 0,20.343265 0,13.39 C0,6.436735 5.636735,0.8 12.59,0.8 L21.7,0.8 L21.7,3.07 L12.59,3.07 C6.89042138,3.07 2.27,7.69042138 2.27,13.39 C2.27,19.0895786 6.89042138,23.71 12.59,23.71 L20.59,23.71 L20.59,12.14 L15,12.14 L15,9.87 L22.84,9.87 L22.84,25.98 Z" id="路径" fill="#0438FF"></path>
      <path d="M18.21,21.4 L12.74,21.4 C8.321722,21.4 4.74,17.818278 4.74,13.4 C4.74,8.981722 8.321722,5.4 12.74,5.4 L22.82,5.4 L22.82,7.68 L12.74,7.68 C10.6375793,7.59211258 8.65613489,8.6636621 7.57873097,10.4711736 C6.50132706,12.2786852 6.50132706,14.5313148 7.57873097,16.3388264 C8.65613489,18.1463379 10.6375793,19.2178874 12.74,19.13 L15.94,19.13 L15.94,16.81 L11.86,16.81 L11.86,14.54 L18.21,14.54 L18.21,21.4 Z" id="路径" fill="#0438FF"></path>
      <circle id="椭圆形" fill="#22D291" cx="20.84" cy="1.98" r="1.98"></circle>
      <circle id="椭圆形" fill="#22D291" cx="13.84" cy="11.11" r="1.98"></circle>
    </g>
  </g>
</svg>
