<svg t="1616841872959" class="icon" viewBox="0 0 1025 1024" version="1.1" xmlns="http://www.w3.org/2000/svg" p-id="3111" width="16" height="16"><path d="M369.792 512a409.6 147.2 90 1 0 294.4 0 409.6 147.2 90 1 0-294.4 0z" fill="#2453EF" fill-opacity=".2" p-id="3112"></path><path d="M368.512 504.32a156.16 147.2 90 1 0 294.4 0 156.16 147.2 90 1 0-294.4 0z" fill="#2453EF" p-id="3113"></path><path d="M871.68 716.8c40.96-70.4-84.48-218.88-281.6-332.8s-386.56-147.2-427.52-76.8 84.48 218.88 281.6 332.8 386.56 147.2 427.52 76.8z" fill="#2453EF" fill-opacity=".2" p-id="3114"></path><path d="M871.68 307.2c-40.96-70.4-232.96-35.84-428.8 76.8S121.6 646.4 161.28 716.8s232.96 35.84 428.8-76.8 322.56-262.4 281.6-332.8z" fill="#2453EF" fill-opacity=".2" p-id="3115"></path><path d="M467.2 512a48.64 48.64 0 1 0 97.28 0 48.64 48.64 0 1 0-97.28 0z" fill="#FFFFFF" p-id="3116"></path></svg>